<?xml version="1.0" encoding="utf-8" standalone="no"?>
<!DOCTYPE svg PUBLIC "-//W3C//DTD SVG 1.1//EN"
  "http://www.w3.org/Graphics/SVG/1.1/DTD/svg11.dtd">
<svg xmlns:xlink="http://www.w3.org/1999/xlink" width="460.8pt" height="345.6pt" viewBox="0 0 460.8 345.6" xmlns="http://www.w3.org/2000/svg" version="1.1">
 <metadata>
  <rdf:RDF xmlns:dc="http://purl.org/dc/elements/1.1/" xmlns:cc="http://creativecommons.org/ns#" xmlns:rdf="http://www.w3.org/1999/02/22-rdf-syntax-ns#">
   <cc:Work>
    <dc:type rdf:resource="http://purl.org/dc/dcmitype/StillImage"/>
    <dc:date>2023-01-27T10:19:06.984435</dc:date>
    <dc:format>image/svg+xml</dc:format>
    <dc:creator>
     <cc:Agent>
      <dc:title>Matplotlib v3.5.2, https://matplotlib.org/</dc:title>
     </cc:Agent>
    </dc:creator>
   </cc:Work>
  </rdf:RDF>
 </metadata>
 <defs>
  <style type="text/css">*{stroke-linejoin: round; stroke-linecap: butt}</style>
 </defs>
 <g id="figure_1">
  <g id="patch_1">
   <path d="M 0 345.6 
L 460.8 345.6 
L 460.8 0 
L 0 0 
z
" style="fill: #ffffff"/>
  </g>
  <g id="axes_1">
   <g id="patch_2">
    <path d="M 57.6 307.584 
L 414.72 307.584 
L 414.72 41.472 
L 57.6 41.472 
z
" style="fill: #ffffff"/>
   </g>
   <g id="matplotlib.axis_1">
    <g id="xtick_1">
     <g id="line2d_1">
      <defs>
       <path id="m3e989b13de" d="M 0 0 
L 0 3.5 
" style="stroke: #000000; stroke-width: 0.8"/>
      </defs>
      <g>
       <use xlink:href="#m3e989b13de" x="73.832727" y="307.584" style="stroke: #000000; stroke-width: 0.8"/>
      </g>
     </g>
     <g id="text_1">
      <!-- 0 -->
      <g transform="translate(70.651477 322.182437)scale(0.1 -0.1)">
       <defs>
        <path id="DejaVuSans-30" d="M 2034 4250 
Q 1547 4250 1301 3770 
Q 1056 3291 1056 2328 
Q 1056 1369 1301 889 
Q 1547 409 2034 409 
Q 2525 409 2770 889 
Q 3016 1369 3016 2328 
Q 3016 3291 2770 3770 
Q 2525 4250 2034 4250 
z
M 2034 4750 
Q 2819 4750 3233 4129 
Q 3647 3509 3647 2328 
Q 3647 1150 3233 529 
Q 2819 -91 2034 -91 
Q 1250 -91 836 529 
Q 422 1150 422 2328 
Q 422 3509 836 4129 
Q 1250 4750 2034 4750 
z
" transform="scale(0.015625)"/>
       </defs>
       <use xlink:href="#DejaVuSans-30"/>
      </g>
     </g>
    </g>
    <g id="xtick_2">
     <g id="line2d_2">
      <g>
       <use xlink:href="#m3e989b13de" x="138.763636" y="307.584" style="stroke: #000000; stroke-width: 0.8"/>
      </g>
     </g>
     <g id="text_2">
      <!-- 2 -->
      <g transform="translate(135.582386 322.182437)scale(0.1 -0.1)">
       <defs>
        <path id="DejaVuSans-32" d="M 1228 531 
L 3431 531 
L 3431 0 
L 469 0 
L 469 531 
Q 828 903 1448 1529 
Q 2069 2156 2228 2338 
Q 2531 2678 2651 2914 
Q 2772 3150 2772 3378 
Q 2772 3750 2511 3984 
Q 2250 4219 1831 4219 
Q 1534 4219 1204 4116 
Q 875 4013 500 3803 
L 500 4441 
Q 881 4594 1212 4672 
Q 1544 4750 1819 4750 
Q 2544 4750 2975 4387 
Q 3406 4025 3406 3419 
Q 3406 3131 3298 2873 
Q 3191 2616 2906 2266 
Q 2828 2175 2409 1742 
Q 1991 1309 1228 531 
z
" transform="scale(0.015625)"/>
       </defs>
       <use xlink:href="#DejaVuSans-32"/>
      </g>
     </g>
    </g>
    <g id="xtick_3">
     <g id="line2d_3">
      <g>
       <use xlink:href="#m3e989b13de" x="203.694545" y="307.584" style="stroke: #000000; stroke-width: 0.8"/>
      </g>
     </g>
     <g id="text_3">
      <!-- 4 -->
      <g transform="translate(200.513295 322.182437)scale(0.1 -0.1)">
       <defs>
        <path id="DejaVuSans-34" d="M 2419 4116 
L 825 1625 
L 2419 1625 
L 2419 4116 
z
M 2253 4666 
L 3047 4666 
L 3047 1625 
L 3713 1625 
L 3713 1100 
L 3047 1100 
L 3047 0 
L 2419 0 
L 2419 1100 
L 313 1100 
L 313 1709 
L 2253 4666 
z
" transform="scale(0.015625)"/>
       </defs>
       <use xlink:href="#DejaVuSans-34"/>
      </g>
     </g>
    </g>
    <g id="xtick_4">
     <g id="line2d_4">
      <g>
       <use xlink:href="#m3e989b13de" x="268.625455" y="307.584" style="stroke: #000000; stroke-width: 0.8"/>
      </g>
     </g>
     <g id="text_4">
      <!-- 6 -->
      <g transform="translate(265.444205 322.182437)scale(0.1 -0.1)">
       <defs>
        <path id="DejaVuSans-36" d="M 2113 2584 
Q 1688 2584 1439 2293 
Q 1191 2003 1191 1497 
Q 1191 994 1439 701 
Q 1688 409 2113 409 
Q 2538 409 2786 701 
Q 3034 994 3034 1497 
Q 3034 2003 2786 2293 
Q 2538 2584 2113 2584 
z
M 3366 4563 
L 3366 3988 
Q 3128 4100 2886 4159 
Q 2644 4219 2406 4219 
Q 1781 4219 1451 3797 
Q 1122 3375 1075 2522 
Q 1259 2794 1537 2939 
Q 1816 3084 2150 3084 
Q 2853 3084 3261 2657 
Q 3669 2231 3669 1497 
Q 3669 778 3244 343 
Q 2819 -91 2113 -91 
Q 1303 -91 875 529 
Q 447 1150 447 2328 
Q 447 3434 972 4092 
Q 1497 4750 2381 4750 
Q 2619 4750 2861 4703 
Q 3103 4656 3366 4563 
z
" transform="scale(0.015625)"/>
       </defs>
       <use xlink:href="#DejaVuSans-36"/>
      </g>
     </g>
    </g>
    <g id="xtick_5">
     <g id="line2d_5">
      <g>
       <use xlink:href="#m3e989b13de" x="333.556364" y="307.584" style="stroke: #000000; stroke-width: 0.8"/>
      </g>
     </g>
     <g id="text_5">
      <!-- 8 -->
      <g transform="translate(330.375114 322.182437)scale(0.1 -0.1)">
       <defs>
        <path id="DejaVuSans-38" d="M 2034 2216 
Q 1584 2216 1326 1975 
Q 1069 1734 1069 1313 
Q 1069 891 1326 650 
Q 1584 409 2034 409 
Q 2484 409 2743 651 
Q 3003 894 3003 1313 
Q 3003 1734 2745 1975 
Q 2488 2216 2034 2216 
z
M 1403 2484 
Q 997 2584 770 2862 
Q 544 3141 544 3541 
Q 544 4100 942 4425 
Q 1341 4750 2034 4750 
Q 2731 4750 3128 4425 
Q 3525 4100 3525 3541 
Q 3525 3141 3298 2862 
Q 3072 2584 2669 2484 
Q 3125 2378 3379 2068 
Q 3634 1759 3634 1313 
Q 3634 634 3220 271 
Q 2806 -91 2034 -91 
Q 1263 -91 848 271 
Q 434 634 434 1313 
Q 434 1759 690 2068 
Q 947 2378 1403 2484 
z
M 1172 3481 
Q 1172 3119 1398 2916 
Q 1625 2713 2034 2713 
Q 2441 2713 2670 2916 
Q 2900 3119 2900 3481 
Q 2900 3844 2670 4047 
Q 2441 4250 2034 4250 
Q 1625 4250 1398 4047 
Q 1172 3844 1172 3481 
z
" transform="scale(0.015625)"/>
       </defs>
       <use xlink:href="#DejaVuSans-38"/>
      </g>
     </g>
    </g>
    <g id="xtick_6">
     <g id="line2d_6">
      <g>
       <use xlink:href="#m3e989b13de" x="398.487273" y="307.584" style="stroke: #000000; stroke-width: 0.8"/>
      </g>
     </g>
     <g id="text_6">
      <!-- 10 -->
      <g transform="translate(392.124773 322.182437)scale(0.1 -0.1)">
       <defs>
        <path id="DejaVuSans-31" d="M 794 531 
L 1825 531 
L 1825 4091 
L 703 3866 
L 703 4441 
L 1819 4666 
L 2450 4666 
L 2450 531 
L 3481 531 
L 3481 0 
L 794 0 
L 794 531 
z
" transform="scale(0.015625)"/>
       </defs>
       <use xlink:href="#DejaVuSans-31"/>
       <use xlink:href="#DejaVuSans-30" x="63.623047"/>
      </g>
     </g>
    </g>
   </g>
   <g id="matplotlib.axis_2">
    <g id="ytick_1">
     <g id="line2d_7">
      <defs>
       <path id="m363a1e2c13" d="M 0 0 
L -3.5 0 
" style="stroke: #000000; stroke-width: 0.8"/>
      </defs>
      <g>
       <use xlink:href="#m363a1e2c13" x="57.6" y="269.314426" style="stroke: #000000; stroke-width: 0.8"/>
      </g>
     </g>
     <g id="text_7">
      <!-- −3 -->
      <g transform="translate(35.857813 273.113644)scale(0.1 -0.1)">
       <defs>
        <path id="DejaVuSans-2212" d="M 678 2272 
L 4684 2272 
L 4684 1741 
L 678 1741 
L 678 2272 
z
" transform="scale(0.015625)"/>
        <path id="DejaVuSans-33" d="M 2597 2516 
Q 3050 2419 3304 2112 
Q 3559 1806 3559 1356 
Q 3559 666 3084 287 
Q 2609 -91 1734 -91 
Q 1441 -91 1130 -33 
Q 819 25 488 141 
L 488 750 
Q 750 597 1062 519 
Q 1375 441 1716 441 
Q 2309 441 2620 675 
Q 2931 909 2931 1356 
Q 2931 1769 2642 2001 
Q 2353 2234 1838 2234 
L 1294 2234 
L 1294 2753 
L 1863 2753 
Q 2328 2753 2575 2939 
Q 2822 3125 2822 3475 
Q 2822 3834 2567 4026 
Q 2313 4219 1838 4219 
Q 1578 4219 1281 4162 
Q 984 4106 628 3988 
L 628 4550 
Q 988 4650 1302 4700 
Q 1616 4750 1894 4750 
Q 2613 4750 3031 4423 
Q 3450 4097 3450 3541 
Q 3450 3153 3228 2886 
Q 3006 2619 2597 2516 
z
" transform="scale(0.015625)"/>
       </defs>
       <use xlink:href="#DejaVuSans-2212"/>
       <use xlink:href="#DejaVuSans-33" x="83.789062"/>
      </g>
     </g>
    </g>
    <g id="ytick_2">
     <g id="line2d_8">
      <g>
       <use xlink:href="#m363a1e2c13" x="57.6" y="222.451584" style="stroke: #000000; stroke-width: 0.8"/>
      </g>
     </g>
     <g id="text_8">
      <!-- −2 -->
      <g transform="translate(35.857813 226.250802)scale(0.1 -0.1)">
       <use xlink:href="#DejaVuSans-2212"/>
       <use xlink:href="#DejaVuSans-32" x="83.789062"/>
      </g>
     </g>
    </g>
    <g id="ytick_3">
     <g id="line2d_9">
      <g>
       <use xlink:href="#m363a1e2c13" x="57.6" y="175.588741" style="stroke: #000000; stroke-width: 0.8"/>
      </g>
     </g>
     <g id="text_9">
      <!-- −1 -->
      <g transform="translate(35.857813 179.38796)scale(0.1 -0.1)">
       <use xlink:href="#DejaVuSans-2212"/>
       <use xlink:href="#DejaVuSans-31" x="83.789062"/>
      </g>
     </g>
    </g>
    <g id="ytick_4">
     <g id="line2d_10">
      <g>
       <use xlink:href="#m363a1e2c13" x="57.6" y="128.725899" style="stroke: #000000; stroke-width: 0.8"/>
      </g>
     </g>
     <g id="text_10">
      <!-- 0 -->
      <g transform="translate(44.2375 132.525118)scale(0.1 -0.1)">
       <use xlink:href="#DejaVuSans-30"/>
      </g>
     </g>
    </g>
    <g id="ytick_5">
     <g id="line2d_11">
      <g>
       <use xlink:href="#m363a1e2c13" x="57.6" y="81.863057" style="stroke: #000000; stroke-width: 0.8"/>
      </g>
     </g>
     <g id="text_11">
      <!-- 1 -->
      <g transform="translate(44.2375 85.662276)scale(0.1 -0.1)">
       <use xlink:href="#DejaVuSans-31"/>
      </g>
     </g>
    </g>
   </g>
   <g id="line2d_12">
    <path d="M 73.832727 77.176773 
L 73.832728 77.176773 
L 73.836251 77.176773 
L 73.871489 77.176777 
L 73.906726 77.176786 
L 73.969756 77.176816 
L 74.078567 77.176909 
L 74.26696 77.177194 
L 74.593046 77.17806 
L 75.149544 77.18063 
L 75.706042 77.184574 
L 76.262539 77.189893 
L 77.414767 77.205267 
L 78.566994 77.226506 
L 79.719221 77.253589 
L 80.871449 77.286484 
L 82.64485 77.348391 
L 84.41825 77.423851 
L 86.191651 77.512729 
L 87.965051 77.614906 
L 89.738452 77.730297 
L 91.511853 77.858879 
L 93.285253 78.000712 
L 95.058654 78.155969 
L 96.832055 78.324964 
L 98.605455 78.508177 
L 100.378856 78.706282 
L 102.152256 78.920169 
L 103.925657 79.150961 
L 105.699058 79.400025 
L 107.472458 79.668977 
L 109.245859 79.959674 
L 111.01926 80.274202 
L 112.79266 80.614851 
L 113.906761 80.843299 
L 115.020863 81.083665 
L 116.134964 81.336609 
L 117.249065 81.602802 
L 118.363167 81.88292 
L 120.166533 82.367584 
L 121.9699 82.893364 
L 123.773267 83.463059 
L 125.576634 84.07936 
L 127.38 84.7448 
L 129.183367 85.461718 
L 130.986734 86.232223 
L 132.7901 87.058171 
L 134.593467 87.941148 
L 137.398253 89.430707 
L 140.203038 91.064648 
L 143.007823 92.844547 
L 145.812609 94.770123 
L 148.617394 96.839262 
L 151.42218 99.048078 
L 154.226965 101.390993 
L 157.031751 103.860825 
L 162.020159 108.539219 
L 167.008566 113.531408 
L 171.996974 118.766291 
L 176.985382 124.163549 
L 181.97379 129.63627 
L 186.962198 135.093549 
L 191.950606 140.443099 
L 196.939014 145.593873 
L 201.927422 150.458654 
L 206.915829 154.956521 
L 211.904237 159.015129 
L 216.892645 162.572779 
L 221.881053 165.580262 
L 226.869461 168.002442 
L 231.857869 169.819545 
L 236.846277 171.028129 
L 241.834685 171.641737 
L 246.823092 171.691226 
L 251.8115 171.224738 
L 256.799908 170.307296 
L 261.788316 169.019901 
L 265.353932 167.925442 
L 268.919549 166.729215 
L 272.485165 165.472288 
L 276.050781 164.197131 
L 279.616398 162.946318 
L 283.182014 161.760939 
L 285.665513 160.994259 
L 288.149012 160.289232 
L 290.632511 159.655935 
L 293.11601 159.102968 
L 295.599509 158.637402 
L 298.083008 158.264806 
L 300.566507 157.989348 
L 303.050006 157.813947 
L 305.533505 157.740418 
L 308.017004 157.769594 
L 310.500503 157.9014 
L 312.984002 158.134879 
L 315.467501 158.468151 
L 317.951 158.898338 
L 320.434499 159.421441 
L 322.917998 160.032216 
L 325.401497 160.724056 
L 327.884996 161.488926 
L 330.368495 162.317361 
L 332.851994 163.198543 
L 335.335493 164.120446 
L 337.818991 165.07005 
L 340.30249 166.033592 
L 342.785989 166.996829 
L 345.269488 167.945298 
L 347.752987 168.864554 
L 350.236486 169.740384 
L 352.719985 170.558988 
L 355.203484 171.307128 
L 357.686983 171.972252 
L 360.170482 172.542595 
L 362.653981 173.00726 
L 365.13748 173.356277 
L 367.620979 173.580662 
L 370.104478 173.672447 
L 372.587977 173.624716 
L 375.071476 173.431626 
L 378.947238 172.828931 
L 382.823 171.848187 
L 386.698762 170.483142 
L 390.574524 168.733958 
L 394.450285 166.607041 
L 398.326047 164.114806 
L 398.487273 164.003467 
" clip-path="url(#p2c7f330a50)" style="fill: none; stroke: #1f77b4; stroke-width: 1.5; stroke-linecap: square"/>
   </g>
   <g id="line2d_13">
    <path d="M 73.832727 128.725899 
L 73.832728 128.725899 
L 73.836251 128.7259 
L 73.871489 128.725942 
L 73.906726 128.726033 
L 73.969756 128.726332 
L 74.078567 128.727262 
L 74.26696 128.730113 
L 74.593046 128.738776 
L 75.149544 128.764476 
L 75.706042 128.803941 
L 76.262539 128.857173 
L 77.414767 129.011142 
L 78.566994 129.224106 
L 79.719221 129.496042 
L 80.871449 129.826918 
L 82.64485 130.451252 
L 84.41825 131.214956 
L 86.191651 132.117836 
L 87.965051 133.159663 
L 89.738452 134.34017 
L 91.511853 135.65905 
L 93.285253 137.115946 
L 95.058654 138.710443 
L 96.832055 140.442045 
L 98.605455 142.310155 
L 100.378856 144.314044 
L 102.152256 146.452818 
L 103.925657 148.725371 
L 105.699058 151.130342 
L 107.472458 153.666063 
L 109.245859 156.330505 
L 111.01926 159.121226 
L 112.79266 162.035324 
L 113.906761 163.92769 
L 115.020863 165.866479 
L 116.134964 167.850641 
L 117.249065 169.879041 
L 118.363167 171.950457 
L 120.166533 175.391147 
L 121.9699 178.934972 
L 123.773267 182.575248 
L 125.576634 186.304639 
L 127.38 190.115202 
L 129.183367 193.998445 
L 130.986734 197.945367 
L 132.7901 201.946501 
L 134.593467 205.991949 
L 137.398253 212.347627 
L 140.203038 218.745415 
L 143.007823 225.143674 
L 145.812609 231.4998 
L 148.617394 237.770708 
L 151.42218 243.913249 
L 154.226965 249.884616 
L 157.031751 255.64275 
L 162.020159 265.230533 
L 167.008566 273.798123 
L 171.996974 281.149585 
L 176.985382 287.115457 
L 181.97379 291.55711 
L 186.962198 294.370323 
L 191.950606 295.488 
L 196.939014 294.881914 
L 201.927422 292.563432 
L 206.915829 288.58325 
L 211.904237 283.030165 
L 216.892645 276.028908 
L 221.881053 267.737069 
L 226.869461 258.341182 
L 231.857869 248.052032 
L 236.846277 237.099294 
L 241.834685 225.725574 
L 246.823092 214.179951 
L 251.8115 202.711097 
L 256.799908 191.560049 
L 261.788316 180.952717 
L 265.353932 173.817809 
L 268.919549 167.130118 
L 272.485165 160.945407 
L 276.050781 155.309098 
L 279.616398 150.255514 
L 283.182014 145.807697 
L 285.665513 143.074529 
L 288.149012 140.642869 
L 290.632511 138.512448 
L 293.11601 136.681644 
L 295.599509 135.147949 
L 298.083008 133.908453 
L 300.566507 132.960262 
L 303.050006 132.300837 
L 305.533505 131.928239 
L 308.017004 131.841289 
L 310.500503 132.03966 
L 312.984002 132.523886 
L 315.467501 133.295295 
L 317.951 134.355875 
L 320.434499 135.708054 
L 322.917998 137.354413 
L 325.401497 139.297327 
L 327.884996 141.538553 
L 330.368495 144.078796 
L 332.851994 146.917276 
L 335.335493 150.051349 
L 337.818991 153.47619 
L 340.30249 157.184577 
L 342.785989 161.166766 
L 345.269488 165.410456 
L 347.752987 169.900828 
L 350.236486 174.620655 
L 352.719985 179.550444 
L 355.203484 184.66862 
L 357.686983 189.951731 
L 360.170482 195.374658 
L 362.653981 200.910845 
L 365.13748 206.532523 
L 367.620979 212.210935 
L 370.104478 217.91657 
L 372.587977 223.619377 
L 375.071476 229.288995 
L 378.947238 237.99852 
L 382.823 246.438136 
L 386.698762 254.495499 
L 390.574524 262.06266 
L 394.450285 269.037751 
L 398.326047 275.326575 
L 398.487273 275.572024 
" clip-path="url(#p2c7f330a50)" style="fill: none; stroke: #ff7f0e; stroke-width: 1.5; stroke-linecap: square"/>
   </g>
   <g id="line2d_14">
    <path d="M 73.832727 128.725899 
L 73.832728 128.725899 
L 73.836251 128.726408 
L 73.871489 128.731494 
L 73.906726 128.736581 
L 73.969756 128.745679 
L 74.078567 128.761385 
L 74.26696 128.788577 
L 74.593046 128.835637 
L 75.149544 128.915918 
L 75.706042 128.996142 
L 76.262539 129.076288 
L 77.414767 129.241877 
L 78.566994 129.40686 
L 79.719221 129.571077 
L 80.871449 129.734385 
L 82.64485 129.983754 
L 84.41825 130.230582 
L 86.191651 130.474985 
L 87.965051 130.717435 
L 89.738452 130.958806 
L 91.511853 131.20042 
L 93.285253 131.444084 
L 95.058654 131.692111 
L 96.832055 131.947324 
L 98.605455 132.213039 
L 100.378856 132.493017 
L 102.152256 132.791394 
L 103.925657 133.112572 
L 105.699058 133.461089 
L 107.472458 133.841467 
L 109.245859 134.258042 
L 111.01926 134.714797 
L 112.79266 135.215202 
L 113.906761 135.553248 
L 115.020863 135.910219 
L 116.134964 136.286522 
L 117.249065 136.682438 
L 118.363167 137.098118 
L 120.166533 137.81279 
L 121.9699 138.578522 
L 123.773267 139.39378 
L 125.576634 140.256147 
L 127.38 141.162441 
L 129.183367 142.108852 
L 130.986734 143.091051 
L 132.7901 144.104281 
L 134.593467 145.143437 
L 137.398253 146.798513 
L 140.203038 148.482405 
L 143.007823 150.173702 
L 145.812609 151.851072 
L 148.617394 153.493674 
L 151.42218 155.081402 
L 154.226965 156.595075 
L 157.031751 158.016621 
L 162.020159 160.26579 
L 167.008566 162.087766 
L 171.996974 163.414577 
L 176.985382 164.194594 
L 181.97379 164.393036 
L 186.962198 163.992305 
L 191.950606 162.992101 
L 196.939014 161.409142 
L 201.927422 159.27652 
L 206.915829 156.642759 
L 211.904237 153.570631 
L 216.892645 150.135728 
L 221.881053 146.424816 
L 226.869461 142.533993 
L 231.857869 138.566721 
L 236.846277 134.631778 
L 241.834685 130.841143 
L 246.823092 127.307807 
L 251.8115 124.143426 
L 256.799908 121.455557 
L 261.788316 119.344001 
L 265.353932 118.236806 
L 268.919549 117.494219 
L 272.485165 117.133804 
L 276.050781 117.162739 
L 279.616398 117.574999 
L 283.182014 118.349161 
L 285.665513 119.082871 
L 288.149012 119.957727 
L 290.632511 120.954975 
L 293.11601 122.054656 
L 295.599509 123.236755 
L 298.083008 124.482241 
L 300.566507 125.773777 
L 303.050006 127.095976 
L 305.533505 128.435248 
L 308.017004 129.779339 
L 310.500503 131.116666 
L 312.984002 132.435568 
L 315.467501 133.723592 
L 317.951 134.966927 
L 320.434499 136.150097 
L 322.917998 137.255994 
L 325.401497 138.266281 
L 327.884996 139.162124 
L 330.368495 139.925157 
L 332.851994 140.538497 
L 335.335493 140.987655 
L 337.818991 141.261203 
L 340.30249 141.351119 
L 342.785989 141.252848 
L 345.269488 140.965125 
L 347.752987 140.489651 
L 350.236486 139.830699 
L 352.719985 138.994709 
L 355.203484 137.989907 
L 357.686983 136.825972 
L 360.170482 135.513749 
L 362.653981 134.06502 
L 365.13748 132.492305 
L 367.620979 130.808707 
L 370.104478 129.027779 
L 372.587977 127.163409 
L 375.071476 125.229725 
L 378.947238 122.107395 
L 382.823 118.905515 
L 386.698762 115.678224 
L 390.574524 112.478662 
L 394.450285 109.358326 
L 398.326047 106.366429 
L 398.487273 106.245447 
" clip-path="url(#p2c7f330a50)" style="fill: none; stroke: #2ca02c; stroke-width: 1.5; stroke-linecap: square"/>
   </g>
   <g id="line2d_15">
    <path d="M 73.832727 128.725899 
L 73.832728 128.7259 
L 73.836251 128.730986 
L 73.871489 128.78185 
L 73.906726 128.832714 
L 73.969756 128.923696 
L 74.078567 129.08076 
L 74.26696 129.352699 
L 74.593046 129.823385 
L 75.149544 130.626628 
L 75.706042 131.429819 
L 76.262539 132.232938 
L 77.414767 133.895464 
L 78.566994 135.557411 
L 79.719221 137.218602 
L 80.871449 138.878852 
L 82.64485 141.43191 
L 84.41825 143.981693 
L 86.191651 146.527583 
L 87.965051 149.068945 
L 89.738452 151.605086 
L 91.511853 154.135204 
L 93.285253 156.658312 
L 95.058654 159.173154 
L 96.832055 161.678106 
L 98.605455 164.171057 
L 100.378856 166.649295 
L 102.152256 169.109389 
L 103.925657 171.547086 
L 105.699058 173.957227 
L 107.472458 176.333694 
L 109.245859 178.669403 
L 111.01926 180.956331 
L 112.79266 183.185596 
L 113.906761 184.552381 
L 115.020863 185.890123 
L 116.134964 187.196216 
L 117.249065 188.468011 
L 118.363167 189.702829 
L 120.166533 191.616329 
L 121.9699 193.414476 
L 123.773267 195.086046 
L 125.576634 196.620182 
L 127.38 198.006556 
L 129.183367 199.235488 
L 130.986734 200.298045 
L 132.7901 201.186111 
L 134.593467 201.892441 
L 137.398253 202.615237 
L 140.203038 202.863933 
L 143.007823 202.624523 
L 145.812609 201.888369 
L 148.617394 200.65208 
L 151.42218 198.917337 
L 154.226965 196.690667 
L 157.031751 193.98322 
L 162.020159 188.030848 
L 167.008566 180.728147 
L 171.996974 172.23084 
L 176.985382 162.726314 
L 181.97379 152.428136 
L 186.962198 141.570246 
L 191.950606 130.4009 
L 196.939014 119.176372 
L 201.927422 108.154541 
L 206.915829 97.588463 
L 211.904237 87.720085 
L 216.892645 78.774209 
L 221.881053 70.952802 
L 226.869461 64.429752 
L 231.857869 59.346147 
L 236.846277 55.806137 
L 241.834685 53.873369 
L 246.823092 53.568 
L 251.8115 54.864196 
L 256.799908 57.688121 
L 261.788316 61.916502 
L 265.353932 65.705451 
L 268.919549 70.046121 
L 272.485165 74.848921 
L 276.050781 80.015438 
L 279.616398 85.442709 
L 283.182014 91.029599 
L 285.665513 94.966024 
L 288.149012 98.909301 
L 290.632511 102.839002 
L 293.11601 106.740698 
L 295.599509 110.606121 
L 298.083008 114.432817 
L 300.566507 118.22331 
L 303.050006 121.984006 
L 305.533505 125.724024 
L 308.017004 129.454107 
L 310.500503 133.185603 
L 312.984002 136.929499 
L 315.467501 140.695455 
L 317.951 144.490819 
L 320.434499 148.319635 
L 322.917998 152.181681 
L 325.401497 156.071659 
L 327.884996 159.978663 
L 330.368495 163.886057 
L 332.851994 167.771832 
L 335.335493 171.60938 
L 337.818991 175.368593 
L 340.30249 179.017107 
L 342.785989 182.521532 
L 345.269488 185.848555 
L 347.752987 188.965844 
L 350.236486 191.842749 
L 352.719985 194.450808 
L 355.203484 196.764088 
L 357.686983 198.759412 
L 360.170482 200.416486 
L 362.653981 201.717968 
L 365.13748 202.649491 
L 367.620979 203.199662 
L 370.104478 203.360036 
L 372.587977 203.125078 
L 375.071476 202.492118 
L 378.947238 200.710319 
L 382.823 197.974063 
L 386.698762 194.312668 
L 390.574524 189.770181 
L 394.450285 184.404414 
L 398.326047 178.285867 
L 398.487273 178.016208 
" clip-path="url(#p2c7f330a50)" style="fill: none; stroke: #d62728; stroke-width: 1.5; stroke-linecap: square"/>
   </g>
   <g id="patch_3">
    <path d="M 57.6 307.584 
L 57.6 41.472 
" style="fill: none; stroke: #000000; stroke-width: 0.8; stroke-linejoin: miter; stroke-linecap: square"/>
   </g>
   <g id="patch_4">
    <path d="M 414.72 307.584 
L 414.72 41.472 
" style="fill: none; stroke: #000000; stroke-width: 0.8; stroke-linejoin: miter; stroke-linecap: square"/>
   </g>
   <g id="patch_5">
    <path d="M 57.6 307.584 
L 414.72 307.584 
" style="fill: none; stroke: #000000; stroke-width: 0.8; stroke-linejoin: miter; stroke-linecap: square"/>
   </g>
   <g id="patch_6">
    <path d="M 57.6 41.472 
L 414.72 41.472 
" style="fill: none; stroke: #000000; stroke-width: 0.8; stroke-linejoin: miter; stroke-linecap: square"/>
   </g>
   <g id="legend_1">
    <g id="patch_7">
     <path d="M 64.6 302.584 
L 107.4 302.584 
Q 109.4 302.584 109.4 300.584 
L 109.4 240.387125 
Q 109.4 238.387125 107.4 238.387125 
L 64.6 238.387125 
Q 62.6 238.387125 62.6 240.387125 
L 62.6 300.584 
Q 62.6 302.584 64.6 302.584 
z
" style="fill: #ffffff; opacity: 0.8; stroke: #cccccc; stroke-linejoin: miter"/>
    </g>
    <g id="line2d_16">
     <path d="M 66.6 246.485562 
L 76.6 246.485562 
L 86.6 246.485562 
" style="fill: none; stroke: #1f77b4; stroke-width: 1.5; stroke-linecap: square"/>
    </g>
    <g id="text_12">
     <!-- $y_1$ -->
     <g transform="translate(94.6 249.985562)scale(0.1 -0.1)">
      <defs>
       <path id="DejaVuSans-Oblique-79" d="M 1588 -325 
Q 1188 -997 936 -1164 
Q 684 -1331 294 -1331 
L -159 -1331 
L -63 -850 
L 269 -850 
Q 509 -850 678 -719 
Q 847 -588 1056 -206 
L 1234 128 
L 459 3500 
L 1069 3500 
L 1650 819 
L 3256 3500 
L 3859 3500 
L 1588 -325 
z
" transform="scale(0.015625)"/>
      </defs>
      <use xlink:href="#DejaVuSans-Oblique-79" transform="translate(0 0.3125)"/>
      <use xlink:href="#DejaVuSans-31" transform="translate(59.179688 -16.09375)scale(0.7)"/>
     </g>
    </g>
    <g id="line2d_17">
     <path d="M 66.6 261.184 
L 76.6 261.184 
L 86.6 261.184 
" style="fill: none; stroke: #ff7f0e; stroke-width: 1.5; stroke-linecap: square"/>
    </g>
    <g id="text_13">
     <!-- $y_2$ -->
     <g transform="translate(94.6 264.684)scale(0.1 -0.1)">
      <use xlink:href="#DejaVuSans-Oblique-79" transform="translate(0 0.3125)"/>
      <use xlink:href="#DejaVuSans-32" transform="translate(59.179688 -16.09375)scale(0.7)"/>
     </g>
    </g>
    <g id="line2d_18">
     <path d="M 66.6 277.084 
L 76.6 277.084 
L 86.6 277.084 
" style="fill: none; stroke: #2ca02c; stroke-width: 1.5; stroke-linecap: square"/>
    </g>
    <g id="text_14">
     <!-- $\dot{y}_1$ -->
     <g transform="translate(94.6 280.584)scale(0.1 -0.1)">
      <defs>
       <path id="DejaVuSans-307" d="M -1894 4863 
L -1319 4863 
L -1319 4134 
L -1894 4134 
L -1894 4863 
z
M -1600 3584 
L -1600 3584 
z
" transform="scale(0.015625)"/>
      </defs>
      <use xlink:href="#DejaVuSans-307" transform="translate(62.388672 12.015625)"/>
      <use xlink:href="#DejaVuSans-Oblique-79" transform="translate(0 0.828125)"/>
      <use xlink:href="#DejaVuSans-31" transform="translate(60.136719 -15.578125)scale(0.7)"/>
     </g>
    </g>
    <g id="line2d_19">
     <path d="M 66.6 292.984 
L 76.6 292.984 
L 86.6 292.984 
" style="fill: none; stroke: #d62728; stroke-width: 1.5; stroke-linecap: square"/>
    </g>
    <g id="text_15">
     <!-- $\dot{y}_2$ -->
     <g transform="translate(94.6 296.484)scale(0.1 -0.1)">
      <use xlink:href="#DejaVuSans-307" transform="translate(62.388672 12.015625)"/>
      <use xlink:href="#DejaVuSans-Oblique-79" transform="translate(0 0.828125)"/>
      <use xlink:href="#DejaVuSans-32" transform="translate(60.136719 -15.578125)scale(0.7)"/>
     </g>
    </g>
   </g>
  </g>
 </g>
 <defs>
  <clipPath id="p2c7f330a50">
   <rect x="57.6" y="41.472" width="357.12" height="266.112"/>
  </clipPath>
 </defs>
</svg>
