<?xml version="1.0" encoding="utf-8" standalone="no"?>
<!DOCTYPE svg PUBLIC "-//W3C//DTD SVG 1.1//EN"
  "http://www.w3.org/Graphics/SVG/1.1/DTD/svg11.dtd">
<svg xmlns:xlink="http://www.w3.org/1999/xlink" width="460.8pt" height="345.6pt" viewBox="0 0 460.8 345.6" xmlns="http://www.w3.org/2000/svg" version="1.1">
 <metadata>
  <rdf:RDF xmlns:dc="http://purl.org/dc/elements/1.1/" xmlns:cc="http://creativecommons.org/ns#" xmlns:rdf="http://www.w3.org/1999/02/22-rdf-syntax-ns#">
   <cc:Work>
    <dc:type rdf:resource="http://purl.org/dc/dcmitype/StillImage"/>
    <dc:date>2023-01-27T10:19:38.797909</dc:date>
    <dc:format>image/svg+xml</dc:format>
    <dc:creator>
     <cc:Agent>
      <dc:title>Matplotlib v3.5.2, https://matplotlib.org/</dc:title>
     </cc:Agent>
    </dc:creator>
   </cc:Work>
  </rdf:RDF>
 </metadata>
 <defs>
  <style type="text/css">*{stroke-linejoin: round; stroke-linecap: butt}</style>
 </defs>
 <g id="figure_1">
  <g id="patch_1">
   <path d="M 0 345.6 
L 460.8 345.6 
L 460.8 0 
L 0 0 
z
" style="fill: #ffffff"/>
  </g>
  <g id="axes_1">
   <g id="patch_2">
    <path d="M 57.6 307.584 
L 414.72 307.584 
L 414.72 41.472 
L 57.6 41.472 
z
" style="fill: #ffffff"/>
   </g>
   <g id="matplotlib.axis_1">
    <g id="xtick_1">
     <g id="line2d_1">
      <defs>
       <path id="m04076bed66" d="M 0 0 
L 0 3.5 
" style="stroke: #000000; stroke-width: 0.8"/>
      </defs>
      <g>
       <use xlink:href="#m04076bed66" x="73.832727" y="307.584" style="stroke: #000000; stroke-width: 0.8"/>
      </g>
     </g>
     <g id="text_1">
      <!-- 0 -->
      <g transform="translate(70.651477 322.182437)scale(0.1 -0.1)">
       <defs>
        <path id="DejaVuSans-30" d="M 2034 4250 
Q 1547 4250 1301 3770 
Q 1056 3291 1056 2328 
Q 1056 1369 1301 889 
Q 1547 409 2034 409 
Q 2525 409 2770 889 
Q 3016 1369 3016 2328 
Q 3016 3291 2770 3770 
Q 2525 4250 2034 4250 
z
M 2034 4750 
Q 2819 4750 3233 4129 
Q 3647 3509 3647 2328 
Q 3647 1150 3233 529 
Q 2819 -91 2034 -91 
Q 1250 -91 836 529 
Q 422 1150 422 2328 
Q 422 3509 836 4129 
Q 1250 4750 2034 4750 
z
" transform="scale(0.015625)"/>
       </defs>
       <use xlink:href="#DejaVuSans-30"/>
      </g>
     </g>
    </g>
    <g id="xtick_2">
     <g id="line2d_2">
      <g>
       <use xlink:href="#m04076bed66" x="138.763636" y="307.584" style="stroke: #000000; stroke-width: 0.8"/>
      </g>
     </g>
     <g id="text_2">
      <!-- 2 -->
      <g transform="translate(135.582386 322.182437)scale(0.1 -0.1)">
       <defs>
        <path id="DejaVuSans-32" d="M 1228 531 
L 3431 531 
L 3431 0 
L 469 0 
L 469 531 
Q 828 903 1448 1529 
Q 2069 2156 2228 2338 
Q 2531 2678 2651 2914 
Q 2772 3150 2772 3378 
Q 2772 3750 2511 3984 
Q 2250 4219 1831 4219 
Q 1534 4219 1204 4116 
Q 875 4013 500 3803 
L 500 4441 
Q 881 4594 1212 4672 
Q 1544 4750 1819 4750 
Q 2544 4750 2975 4387 
Q 3406 4025 3406 3419 
Q 3406 3131 3298 2873 
Q 3191 2616 2906 2266 
Q 2828 2175 2409 1742 
Q 1991 1309 1228 531 
z
" transform="scale(0.015625)"/>
       </defs>
       <use xlink:href="#DejaVuSans-32"/>
      </g>
     </g>
    </g>
    <g id="xtick_3">
     <g id="line2d_3">
      <g>
       <use xlink:href="#m04076bed66" x="203.694545" y="307.584" style="stroke: #000000; stroke-width: 0.8"/>
      </g>
     </g>
     <g id="text_3">
      <!-- 4 -->
      <g transform="translate(200.513295 322.182437)scale(0.1 -0.1)">
       <defs>
        <path id="DejaVuSans-34" d="M 2419 4116 
L 825 1625 
L 2419 1625 
L 2419 4116 
z
M 2253 4666 
L 3047 4666 
L 3047 1625 
L 3713 1625 
L 3713 1100 
L 3047 1100 
L 3047 0 
L 2419 0 
L 2419 1100 
L 313 1100 
L 313 1709 
L 2253 4666 
z
" transform="scale(0.015625)"/>
       </defs>
       <use xlink:href="#DejaVuSans-34"/>
      </g>
     </g>
    </g>
    <g id="xtick_4">
     <g id="line2d_4">
      <g>
       <use xlink:href="#m04076bed66" x="268.625455" y="307.584" style="stroke: #000000; stroke-width: 0.8"/>
      </g>
     </g>
     <g id="text_4">
      <!-- 6 -->
      <g transform="translate(265.444205 322.182437)scale(0.1 -0.1)">
       <defs>
        <path id="DejaVuSans-36" d="M 2113 2584 
Q 1688 2584 1439 2293 
Q 1191 2003 1191 1497 
Q 1191 994 1439 701 
Q 1688 409 2113 409 
Q 2538 409 2786 701 
Q 3034 994 3034 1497 
Q 3034 2003 2786 2293 
Q 2538 2584 2113 2584 
z
M 3366 4563 
L 3366 3988 
Q 3128 4100 2886 4159 
Q 2644 4219 2406 4219 
Q 1781 4219 1451 3797 
Q 1122 3375 1075 2522 
Q 1259 2794 1537 2939 
Q 1816 3084 2150 3084 
Q 2853 3084 3261 2657 
Q 3669 2231 3669 1497 
Q 3669 778 3244 343 
Q 2819 -91 2113 -91 
Q 1303 -91 875 529 
Q 447 1150 447 2328 
Q 447 3434 972 4092 
Q 1497 4750 2381 4750 
Q 2619 4750 2861 4703 
Q 3103 4656 3366 4563 
z
" transform="scale(0.015625)"/>
       </defs>
       <use xlink:href="#DejaVuSans-36"/>
      </g>
     </g>
    </g>
    <g id="xtick_5">
     <g id="line2d_5">
      <g>
       <use xlink:href="#m04076bed66" x="333.556364" y="307.584" style="stroke: #000000; stroke-width: 0.8"/>
      </g>
     </g>
     <g id="text_5">
      <!-- 8 -->
      <g transform="translate(330.375114 322.182437)scale(0.1 -0.1)">
       <defs>
        <path id="DejaVuSans-38" d="M 2034 2216 
Q 1584 2216 1326 1975 
Q 1069 1734 1069 1313 
Q 1069 891 1326 650 
Q 1584 409 2034 409 
Q 2484 409 2743 651 
Q 3003 894 3003 1313 
Q 3003 1734 2745 1975 
Q 2488 2216 2034 2216 
z
M 1403 2484 
Q 997 2584 770 2862 
Q 544 3141 544 3541 
Q 544 4100 942 4425 
Q 1341 4750 2034 4750 
Q 2731 4750 3128 4425 
Q 3525 4100 3525 3541 
Q 3525 3141 3298 2862 
Q 3072 2584 2669 2484 
Q 3125 2378 3379 2068 
Q 3634 1759 3634 1313 
Q 3634 634 3220 271 
Q 2806 -91 2034 -91 
Q 1263 -91 848 271 
Q 434 634 434 1313 
Q 434 1759 690 2068 
Q 947 2378 1403 2484 
z
M 1172 3481 
Q 1172 3119 1398 2916 
Q 1625 2713 2034 2713 
Q 2441 2713 2670 2916 
Q 2900 3119 2900 3481 
Q 2900 3844 2670 4047 
Q 2441 4250 2034 4250 
Q 1625 4250 1398 4047 
Q 1172 3844 1172 3481 
z
" transform="scale(0.015625)"/>
       </defs>
       <use xlink:href="#DejaVuSans-38"/>
      </g>
     </g>
    </g>
    <g id="xtick_6">
     <g id="line2d_6">
      <g>
       <use xlink:href="#m04076bed66" x="398.487273" y="307.584" style="stroke: #000000; stroke-width: 0.8"/>
      </g>
     </g>
     <g id="text_6">
      <!-- 10 -->
      <g transform="translate(392.124773 322.182437)scale(0.1 -0.1)">
       <defs>
        <path id="DejaVuSans-31" d="M 794 531 
L 1825 531 
L 1825 4091 
L 703 3866 
L 703 4441 
L 1819 4666 
L 2450 4666 
L 2450 531 
L 3481 531 
L 3481 0 
L 794 0 
L 794 531 
z
" transform="scale(0.015625)"/>
       </defs>
       <use xlink:href="#DejaVuSans-31"/>
       <use xlink:href="#DejaVuSans-30" x="63.623047"/>
      </g>
     </g>
    </g>
    <g id="text_7">
     <!-- $t$ -->
     <g transform="translate(234.16 335.860562)scale(0.1 -0.1)">
      <defs>
       <path id="DejaVuSans-Oblique-74" d="M 2706 3500 
L 2619 3053 
L 1472 3053 
L 1100 1153 
Q 1081 1047 1072 975 
Q 1063 903 1063 863 
Q 1063 663 1183 572 
Q 1303 481 1569 481 
L 2150 481 
L 2053 0 
L 1503 0 
Q 991 0 739 200 
Q 488 400 488 806 
Q 488 878 497 964 
Q 506 1050 525 1153 
L 897 3053 
L 409 3053 
L 500 3500 
L 978 3500 
L 1172 4494 
L 1747 4494 
L 1556 3500 
L 2706 3500 
z
" transform="scale(0.015625)"/>
      </defs>
      <use xlink:href="#DejaVuSans-Oblique-74" transform="translate(0 0.78125)"/>
     </g>
    </g>
   </g>
   <g id="matplotlib.axis_2">
    <g id="ytick_1">
     <g id="line2d_7">
      <defs>
       <path id="md7ac7a6d06" d="M 0 0 
L -3.5 0 
" style="stroke: #000000; stroke-width: 0.8"/>
      </defs>
      <g>
       <use xlink:href="#md7ac7a6d06" x="57.6" y="272.407051" style="stroke: #000000; stroke-width: 0.8"/>
      </g>
     </g>
     <g id="text_8">
      <!-- −2 -->
      <g transform="translate(35.857813 276.20627)scale(0.1 -0.1)">
       <defs>
        <path id="DejaVuSans-2212" d="M 678 2272 
L 4684 2272 
L 4684 1741 
L 678 1741 
L 678 2272 
z
" transform="scale(0.015625)"/>
       </defs>
       <use xlink:href="#DejaVuSans-2212"/>
       <use xlink:href="#DejaVuSans-32" x="83.789062"/>
      </g>
     </g>
    </g>
    <g id="ytick_2">
     <g id="line2d_8">
      <g>
       <use xlink:href="#md7ac7a6d06" x="57.6" y="231.081442" style="stroke: #000000; stroke-width: 0.8"/>
      </g>
     </g>
     <g id="text_9">
      <!-- −1 -->
      <g transform="translate(35.857813 234.880661)scale(0.1 -0.1)">
       <use xlink:href="#DejaVuSans-2212"/>
       <use xlink:href="#DejaVuSans-31" x="83.789062"/>
      </g>
     </g>
    </g>
    <g id="ytick_3">
     <g id="line2d_9">
      <g>
       <use xlink:href="#md7ac7a6d06" x="57.6" y="189.755834" style="stroke: #000000; stroke-width: 0.8"/>
      </g>
     </g>
     <g id="text_10">
      <!-- 0 -->
      <g transform="translate(44.2375 193.555053)scale(0.1 -0.1)">
       <use xlink:href="#DejaVuSans-30"/>
      </g>
     </g>
    </g>
    <g id="ytick_4">
     <g id="line2d_10">
      <g>
       <use xlink:href="#md7ac7a6d06" x="57.6" y="148.430226" style="stroke: #000000; stroke-width: 0.8"/>
      </g>
     </g>
     <g id="text_11">
      <!-- 1 -->
      <g transform="translate(44.2375 152.229444)scale(0.1 -0.1)">
       <use xlink:href="#DejaVuSans-31"/>
      </g>
     </g>
    </g>
    <g id="ytick_5">
     <g id="line2d_11">
      <g>
       <use xlink:href="#md7ac7a6d06" x="57.6" y="107.104617" style="stroke: #000000; stroke-width: 0.8"/>
      </g>
     </g>
     <g id="text_12">
      <!-- 2 -->
      <g transform="translate(44.2375 110.903836)scale(0.1 -0.1)">
       <use xlink:href="#DejaVuSans-32"/>
      </g>
     </g>
    </g>
    <g id="ytick_6">
     <g id="line2d_12">
      <g>
       <use xlink:href="#md7ac7a6d06" x="57.6" y="65.779009" style="stroke: #000000; stroke-width: 0.8"/>
      </g>
     </g>
     <g id="text_13">
      <!-- 3 -->
      <g transform="translate(44.2375 69.578228)scale(0.1 -0.1)">
       <defs>
        <path id="DejaVuSans-33" d="M 2597 2516 
Q 3050 2419 3304 2112 
Q 3559 1806 3559 1356 
Q 3559 666 3084 287 
Q 2609 -91 1734 -91 
Q 1441 -91 1130 -33 
Q 819 25 488 141 
L 488 750 
Q 750 597 1062 519 
Q 1375 441 1716 441 
Q 2309 441 2620 675 
Q 2931 909 2931 1356 
Q 2931 1769 2642 2001 
Q 2353 2234 1838 2234 
L 1294 2234 
L 1294 2753 
L 1863 2753 
Q 2328 2753 2575 2939 
Q 2822 3125 2822 3475 
Q 2822 3834 2567 4026 
Q 2313 4219 1838 4219 
Q 1578 4219 1281 4162 
Q 984 4106 628 3988 
L 628 4550 
Q 988 4650 1302 4700 
Q 1616 4750 1894 4750 
Q 2613 4750 3031 4423 
Q 3450 4097 3450 3541 
Q 3450 3153 3228 2886 
Q 3006 2619 2597 2516 
z
" transform="scale(0.015625)"/>
       </defs>
       <use xlink:href="#DejaVuSans-33"/>
      </g>
     </g>
    </g>
    <g id="text_14">
     <!-- Energy -->
     <g transform="translate(29.778125 192.03425)rotate(-90)scale(0.1 -0.1)">
      <defs>
       <path id="DejaVuSans-45" d="M 628 4666 
L 3578 4666 
L 3578 4134 
L 1259 4134 
L 1259 2753 
L 3481 2753 
L 3481 2222 
L 1259 2222 
L 1259 531 
L 3634 531 
L 3634 0 
L 628 0 
L 628 4666 
z
" transform="scale(0.015625)"/>
       <path id="DejaVuSans-6e" d="M 3513 2113 
L 3513 0 
L 2938 0 
L 2938 2094 
Q 2938 2591 2744 2837 
Q 2550 3084 2163 3084 
Q 1697 3084 1428 2787 
Q 1159 2491 1159 1978 
L 1159 0 
L 581 0 
L 581 3500 
L 1159 3500 
L 1159 2956 
Q 1366 3272 1645 3428 
Q 1925 3584 2291 3584 
Q 2894 3584 3203 3211 
Q 3513 2838 3513 2113 
z
" transform="scale(0.015625)"/>
       <path id="DejaVuSans-65" d="M 3597 1894 
L 3597 1613 
L 953 1613 
Q 991 1019 1311 708 
Q 1631 397 2203 397 
Q 2534 397 2845 478 
Q 3156 559 3463 722 
L 3463 178 
Q 3153 47 2828 -22 
Q 2503 -91 2169 -91 
Q 1331 -91 842 396 
Q 353 884 353 1716 
Q 353 2575 817 3079 
Q 1281 3584 2069 3584 
Q 2775 3584 3186 3129 
Q 3597 2675 3597 1894 
z
M 3022 2063 
Q 3016 2534 2758 2815 
Q 2500 3097 2075 3097 
Q 1594 3097 1305 2825 
Q 1016 2553 972 2059 
L 3022 2063 
z
" transform="scale(0.015625)"/>
       <path id="DejaVuSans-72" d="M 2631 2963 
Q 2534 3019 2420 3045 
Q 2306 3072 2169 3072 
Q 1681 3072 1420 2755 
Q 1159 2438 1159 1844 
L 1159 0 
L 581 0 
L 581 3500 
L 1159 3500 
L 1159 2956 
Q 1341 3275 1631 3429 
Q 1922 3584 2338 3584 
Q 2397 3584 2469 3576 
Q 2541 3569 2628 3553 
L 2631 2963 
z
" transform="scale(0.015625)"/>
       <path id="DejaVuSans-67" d="M 2906 1791 
Q 2906 2416 2648 2759 
Q 2391 3103 1925 3103 
Q 1463 3103 1205 2759 
Q 947 2416 947 1791 
Q 947 1169 1205 825 
Q 1463 481 1925 481 
Q 2391 481 2648 825 
Q 2906 1169 2906 1791 
z
M 3481 434 
Q 3481 -459 3084 -895 
Q 2688 -1331 1869 -1331 
Q 1566 -1331 1297 -1286 
Q 1028 -1241 775 -1147 
L 775 -588 
Q 1028 -725 1275 -790 
Q 1522 -856 1778 -856 
Q 2344 -856 2625 -561 
Q 2906 -266 2906 331 
L 2906 616 
Q 2728 306 2450 153 
Q 2172 0 1784 0 
Q 1141 0 747 490 
Q 353 981 353 1791 
Q 353 2603 747 3093 
Q 1141 3584 1784 3584 
Q 2172 3584 2450 3431 
Q 2728 3278 2906 2969 
L 2906 3500 
L 3481 3500 
L 3481 434 
z
" transform="scale(0.015625)"/>
       <path id="DejaVuSans-79" d="M 2059 -325 
Q 1816 -950 1584 -1140 
Q 1353 -1331 966 -1331 
L 506 -1331 
L 506 -850 
L 844 -850 
Q 1081 -850 1212 -737 
Q 1344 -625 1503 -206 
L 1606 56 
L 191 3500 
L 800 3500 
L 1894 763 
L 2988 3500 
L 3597 3500 
L 2059 -325 
z
" transform="scale(0.015625)"/>
      </defs>
      <use xlink:href="#DejaVuSans-45"/>
      <use xlink:href="#DejaVuSans-6e" x="63.183594"/>
      <use xlink:href="#DejaVuSans-65" x="126.5625"/>
      <use xlink:href="#DejaVuSans-72" x="188.085938"/>
      <use xlink:href="#DejaVuSans-67" x="227.449219"/>
      <use xlink:href="#DejaVuSans-79" x="290.925781"/>
     </g>
    </g>
   </g>
   <g id="line2d_13">
    <path d="M 73.832727 148.430226 
L 73.832728 148.430226 
L 73.836251 148.430226 
L 73.871489 148.430263 
L 73.906726 148.430344 
L 73.969756 148.430608 
L 74.078567 148.431427 
L 74.26696 148.433942 
L 74.593046 148.441581 
L 75.149544 148.464244 
L 75.706042 148.499046 
L 76.262539 148.545988 
L 77.414767 148.681765 
L 78.566994 148.869565 
L 79.719221 149.109369 
L 80.871449 149.40115 
L 82.64485 149.951714 
L 84.41825 150.62518 
L 86.191651 151.421377 
L 87.965051 152.340103 
L 89.738452 153.381124 
L 91.511853 154.544167 
L 93.285253 155.828919 
L 95.058654 157.235013 
L 96.832055 158.762012 
L 98.605455 160.409389 
L 100.378856 162.176502 
L 102.152256 164.062562 
L 103.925657 166.066594 
L 105.699058 168.187398 
L 107.472458 170.423502 
L 109.245859 172.773118 
L 111.01926 175.234092 
L 112.79266 177.803866 
L 113.906761 179.472633 
L 115.020863 181.182338 
L 116.134964 182.932055 
L 117.249065 184.720782 
L 118.363167 186.547443 
L 120.166533 189.581587 
L 121.9699 192.706679 
L 123.773267 195.916827 
L 125.576634 199.205559 
L 127.38 202.565873 
L 129.183367 205.990278 
L 130.986734 209.470839 
L 132.7901 212.999205 
L 134.593467 216.56665 
L 137.398253 222.171353 
L 140.203038 227.813189 
L 143.007823 233.45544 
L 145.812609 239.060537 
L 148.617394 244.590485 
L 151.42218 250.007234 
L 154.226965 255.273034 
L 157.031751 260.350797 
L 162.020159 268.805704 
L 167.008566 276.360962 
L 171.996974 282.843788 
L 176.985382 288.104743 
L 181.97379 292.021577 
L 186.962198 294.502386 
L 191.950606 295.488 
L 196.939014 294.953528 
L 201.927422 292.908994 
L 206.915829 289.399103 
L 211.904237 284.502162 
L 216.892645 278.328161 
L 221.881053 271.016072 
L 226.869461 262.730387 
L 231.857869 253.656985 
L 236.846277 243.998404 
L 241.834685 233.968584 
L 246.823092 223.787172 
L 251.8115 213.673458 
L 256.799908 203.839999 
L 261.788316 194.486011 
L 265.353932 188.194152 
L 268.919549 182.296667 
L 272.485165 176.842731 
L 276.050781 171.872399 
L 279.616398 167.415938 
L 283.182014 163.493667 
L 285.665513 161.083446 
L 288.149012 158.939106 
L 290.632511 157.060412 
L 293.11601 155.445933 
L 295.599509 154.093457 
L 298.083008 153.000417 
L 300.566507 152.164263 
L 303.050006 151.582755 
L 305.533505 151.254182 
L 308.017004 151.177506 
L 310.500503 151.352438 
L 312.984002 151.779448 
L 315.467501 152.45971 
L 317.951 153.394973 
L 320.434499 154.587381 
L 322.917998 156.039209 
L 325.401497 157.752551 
L 327.884996 159.728958 
L 330.368495 161.96905 
L 332.851994 164.472141 
L 335.335493 167.235897 
L 337.818991 170.256064 
L 340.30249 173.526275 
L 342.785989 177.037935 
L 345.269488 180.780197 
L 347.752987 184.739995 
L 350.236486 188.902135 
L 352.719985 193.249429 
L 355.203484 197.76285 
L 357.686983 202.421717 
L 360.170482 207.20388 
L 362.653981 212.085921 
L 365.13748 217.043351 
L 367.620979 222.050812 
L 370.104478 227.082278 
L 372.587977 232.111251 
L 375.071476 237.110957 
L 378.947238 244.791379 
L 382.823 252.233784 
L 386.698762 259.339104 
L 390.574524 266.012141 
L 394.450285 272.163067 
L 398.326047 277.708815 
L 398.487273 277.925262 
" clip-path="url(#p36e45ae93d)" style="fill: none; stroke: #1f77b4; stroke-width: 1.5; stroke-linecap: square"/>
   </g>
   <g id="line2d_14">
    <path d="M 73.832727 189.755834 
L 73.832728 189.755834 
L 73.836251 189.755834 
L 73.871489 189.755804 
L 73.906726 189.755726 
L 73.969756 189.755462 
L 74.078567 189.754637 
L 74.26696 189.752101 
L 74.593046 189.744388 
L 75.149544 189.721503 
L 75.706042 189.686358 
L 76.262539 189.638958 
L 77.414767 189.501886 
L 78.566994 189.312369 
L 79.719221 189.070497 
L 80.871449 188.776388 
L 82.64485 188.221973 
L 84.41825 187.544746 
L 86.191651 186.745417 
L 87.965051 185.824804 
L 89.738452 184.783844 
L 91.511853 183.623623 
L 93.285253 182.345424 
L 95.058654 180.950806 
L 96.832055 179.44172 
L 98.605455 177.82065 
L 100.378856 176.090797 
L 102.152256 174.256284 
L 103.925657 172.322387 
L 105.699058 170.29576 
L 107.472458 168.18466 
L 109.245859 165.999129 
L 111.01926 163.751127 
L 112.79266 161.454594 
L 113.906761 159.993988 
L 115.020863 158.524772 
L 116.134964 157.051568 
L 117.249065 155.579235 
L 118.363167 154.112848 
L 120.166533 151.765385 
L 121.9699 149.470511 
L 123.773267 147.252054 
L 125.576634 145.134074 
L 127.38 143.140391 
L 129.183367 141.294124 
L 130.986734 139.617258 
L 132.7901 138.13023 
L 134.593467 136.851566 
L 137.398253 135.31441 
L 140.203038 134.368699 
L 143.007823 134.046474 
L 145.812609 134.361614 
L 148.617394 135.309098 
L 151.42218 136.865002 
L 154.226965 138.987144 
L 157.031751 141.616291 
L 162.020159 147.305036 
L 167.008566 153.840295 
L 171.996974 160.626487 
L 176.985382 167.042575 
L 181.97379 172.500742 
L 186.962198 176.501757 
L 191.950606 178.681938 
L 196.939014 178.847442 
L 201.927422 176.992663 
L 206.915829 173.300953 
L 211.904237 168.127584 
L 216.892645 161.966595 
L 221.881053 155.404647 
L 226.869461 149.0662 
L 231.857869 143.555177 
L 236.846277 139.398584 
L 241.834685 136.99743 
L 246.823092 136.589605 
L 251.8115 138.228332 
L 256.799908 141.778503 
L 261.788316 146.931754 
L 265.353932 151.353092 
L 268.919549 156.171605 
L 272.485165 161.180463 
L 276.050781 166.173591 
L 279.616398 170.959245 
L 283.182014 175.37279 
L 285.665513 178.157504 
L 288.149012 180.667823 
L 290.632511 182.882565 
L 293.11601 184.789382 
L 295.599509 186.383201 
L 298.083008 187.664261 
L 300.566507 188.63601 
L 303.050006 189.303181 
L 305.533505 189.670254 
L 308.017004 189.740403 
L 310.500503 189.514926 
L 312.984002 188.993154 
L 315.467501 188.172838 
L 317.951 187.050977 
L 320.434499 185.62508 
L 322.917998 183.894782 
L 325.401497 181.863684 
L 327.884996 179.541223 
L 330.368495 176.944312 
L 332.851994 174.09852 
L 335.335493 171.038594 
L 337.818991 167.808277 
L 340.30249 164.459448 
L 342.785989 161.050724 
L 345.269488 157.645679 
L 347.752987 154.310838 
L 350.236486 151.113588 
L 352.719985 148.120112 
L 355.203484 145.393409 
L 357.686983 142.991476 
L 360.170482 140.965668 
L 362.653981 139.359282 
L 365.13748 138.206381 
L 367.620979 137.530868 
L 370.104478 137.345836 
L 372.587977 137.653185 
L 375.071476 138.443529 
L 378.947238 140.589825 
L 382.823 143.73059 
L 386.698762 147.681156 
L 390.574524 152.211367 
L 394.450285 157.05854 
L 398.326047 161.942281 
L 398.487273 162.142039 
" clip-path="url(#p36e45ae93d)" style="fill: none; stroke: #ff7f0e; stroke-width: 1.5; stroke-linecap: square"/>
   </g>
   <g id="line2d_15">
    <path d="M 73.832727 189.549206 
L 73.832728 189.549206 
L 73.836251 189.549206 
L 73.871489 189.549206 
L 73.906726 189.549207 
L 73.969756 189.54921 
L 74.078567 189.549218 
L 74.26696 189.549243 
L 74.593046 189.549319 
L 75.149544 189.549545 
L 75.706042 189.549888 
L 76.262539 189.550347 
L 77.414767 189.551642 
L 78.566994 189.553358 
L 79.719221 189.555424 
L 80.871449 189.557752 
L 82.64485 189.561594 
L 84.41825 189.565345 
L 86.191651 189.568466 
L 87.965051 189.570345 
L 89.738452 189.57028 
L 91.511853 189.56746 
L 93.285253 189.560918 
L 95.058654 189.549465 
L 96.832055 189.531592 
L 98.605455 189.505343 
L 100.378856 189.468163 
L 102.152256 189.416719 
L 103.925657 189.346711 
L 105.699058 189.252681 
L 107.472458 189.127838 
L 109.245859 188.963924 
L 111.01926 188.75112 
L 112.79266 188.478034 
L 113.906761 188.269908 
L 115.020863 188.029432 
L 116.134964 187.752925 
L 117.249065 187.436533 
L 118.363167 187.076259 
L 120.166533 186.389558 
L 121.9699 185.559295 
L 123.773267 184.567556 
L 125.576634 183.396757 
L 127.38 182.030083 
L 129.183367 180.451906 
L 130.986734 178.64818 
L 132.7901 176.606817 
L 134.593467 174.318016 
L 137.398253 170.250427 
L 140.203038 165.554229 
L 143.007823 160.234137 
L 145.812609 154.313887 
L 148.617394 147.836487 
L 151.42218 140.863868 
L 154.226965 133.475941 
L 157.031751 125.769032 
L 162.020159 111.625449 
L 167.008566 97.535205 
L 171.996974 84.266595 
L 176.985382 72.589908 
L 181.97379 63.215153 
L 186.962198 56.733546 
L 191.950606 53.568 
L 196.939014 53.937242 
L 201.927422 57.836824 
L 206.915829 65.038682 
L 211.904237 75.109244 
L 216.892645 87.444481 
L 221.881053 101.318761 
L 226.869461 115.943127 
L 231.857869 130.527772 
L 236.846277 144.343149 
L 241.834685 156.774301 
L 246.823092 167.363686 
L 251.8115 175.838788 
L 256.799908 182.122167 
L 261.788316 186.323017 
L 265.353932 188.193601 
L 268.919549 189.272655 
L 272.485165 189.717884 
L 276.050781 189.695327 
L 279.616398 189.366451 
L 283.182014 188.875528 
L 285.665513 188.501094 
L 288.149012 188.135089 
L 290.632511 187.799017 
L 293.11601 187.50667 
L 295.599509 187.26531 
L 298.083008 187.077261 
L 300.566507 186.941637 
L 303.050006 186.855954 
L 305.533505 186.817439 
L 308.017004 186.823953 
L 310.500503 186.874484 
L 312.984002 186.96923 
L 315.467501 187.109268 
L 317.951 187.295848 
L 320.434499 187.529315 
L 322.917998 187.807758 
L 325.401497 188.125475 
L 327.884996 188.471481 
L 330.368495 188.828244 
L 332.851994 189.170894 
L 335.335493 189.467028 
L 337.818991 189.677167 
L 340.30249 189.7558 
L 342.785989 189.6529 
L 345.269488 189.315733 
L 347.752987 188.69083 
L 350.236486 187.725991 
L 352.719985 186.372219 
L 355.203484 184.585536 
L 357.686983 182.328629 
L 360.170482 179.572293 
L 362.653981 176.296652 
L 365.13748 172.492133 
L 367.620979 168.160192 
L 370.104478 163.313763 
L 372.587977 157.977445 
L 375.071476 152.187398 
L 378.947238 142.360698 
L 382.823 131.777578 
L 386.698762 120.721759 
L 390.574524 109.518569 
L 394.450285 98.520514 
L 398.326047 88.09107 
L 398.487273 87.674865 
" clip-path="url(#p36e45ae93d)" style="fill: none; stroke: #2ca02c; stroke-width: 1.5; stroke-linecap: square"/>
   </g>
   <g id="line2d_16">
    <path d="M 73.832727 148.223598 
L 73.832728 148.223598 
L 73.836251 148.223598 
L 73.871489 148.223606 
L 73.906726 148.223609 
L 73.969756 148.223612 
L 74.078567 148.223615 
L 74.26696 148.223617 
L 74.593046 148.22362 
L 75.149544 148.223623 
L 75.706042 148.223624 
L 76.262539 148.223624 
L 77.414767 148.223625 
L 78.566994 148.223624 
L 79.719221 148.223623 
L 80.871449 148.223621 
L 82.64485 148.223614 
L 84.41825 148.223603 
L 86.191651 148.223592 
L 87.965051 148.223584 
L 89.738452 148.22358 
L 91.511853 148.223582 
L 93.285253 148.223593 
L 95.058654 148.223617 
L 96.832055 148.223656 
L 98.605455 148.223714 
L 100.378856 148.223794 
L 102.152256 148.223897 
L 103.925657 148.224023 
L 105.699058 148.22417 
L 107.472458 148.224332 
L 109.245859 148.224502 
L 111.01926 148.224671 
L 112.79266 148.224826 
L 113.906761 148.224861 
L 115.020863 148.224874 
L 116.134964 148.22488 
L 117.249065 148.224883 
L 118.363167 148.224883 
L 120.166533 148.224863 
L 121.9699 148.224818 
L 123.773267 148.224768 
L 125.576634 148.224722 
L 127.38 148.224679 
L 129.183367 148.224641 
L 130.986734 148.224609 
L 132.7901 148.224584 
L 134.593467 148.224564 
L 137.398253 148.224522 
L 140.203038 148.224449 
L 143.007823 148.224383 
L 145.812609 148.22437 
L 148.617394 148.224402 
L 151.42218 148.224437 
L 154.226965 148.224451 
L 157.031751 148.224453 
L 162.020159 148.224521 
L 167.008566 148.224794 
L 171.996974 148.225202 
L 176.985382 148.225558 
L 181.97379 148.225804 
L 186.962198 148.22602 
L 191.950606 148.22627 
L 196.939014 148.226544 
L 201.927422 148.226813 
L 206.915829 148.22707 
L 211.904237 148.227321 
L 216.892645 148.227569 
L 221.881053 148.227812 
L 226.869461 148.228046 
L 231.857869 148.228266 
L 236.846277 148.228469 
L 241.834685 148.228647 
L 246.823092 148.228795 
L 251.8115 148.22891 
L 256.799908 148.229001 
L 261.788316 148.229114 
L 265.353932 148.229176 
L 268.919549 148.229259 
L 272.485165 148.22941 
L 276.050781 148.229648 
L 279.616398 148.229966 
L 283.182014 148.230318 
L 285.665513 148.230376 
L 288.149012 148.23035 
L 290.632511 148.230327 
L 293.11601 148.230317 
L 295.599509 148.2303 
L 298.083008 148.230271 
L 300.566507 148.230242 
L 303.050006 148.230222 
L 305.533505 148.230208 
L 308.017004 148.230195 
L 310.500503 148.23018 
L 312.984002 148.230164 
L 315.467501 148.230148 
L 317.951 148.23013 
L 320.434499 148.230108 
L 322.917998 148.23008 
L 325.401497 148.230042 
L 327.884996 148.229993 
L 330.368495 148.229938 
L 332.851994 148.229887 
L 335.335493 148.229851 
L 337.818991 148.22984 
L 340.30249 148.229854 
L 342.785989 148.229891 
L 345.269488 148.229941 
L 347.752987 148.229996 
L 350.236486 148.230047 
L 352.719985 148.230091 
L 355.203484 148.230127 
L 357.686983 148.230154 
L 360.170482 148.230174 
L 362.653981 148.230187 
L 365.13748 148.230197 
L 367.620979 148.230204 
L 370.104478 148.230209 
L 372.587977 148.230213 
L 375.071476 148.230216 
L 378.947238 148.230234 
L 382.823 148.230283 
L 386.698762 148.23035 
L 390.574524 148.230409 
L 394.450285 148.230454 
L 398.326047 148.230498 
L 398.487273 148.230498 
" clip-path="url(#p36e45ae93d)" style="fill: none; stroke: #d62728; stroke-width: 1.5; stroke-linecap: square"/>
   </g>
   <g id="patch_3">
    <path d="M 57.6 307.584 
L 57.6 41.472 
" style="fill: none; stroke: #000000; stroke-width: 0.8; stroke-linejoin: miter; stroke-linecap: square"/>
   </g>
   <g id="patch_4">
    <path d="M 414.72 307.584 
L 414.72 41.472 
" style="fill: none; stroke: #000000; stroke-width: 0.8; stroke-linejoin: miter; stroke-linecap: square"/>
   </g>
   <g id="patch_5">
    <path d="M 57.6 307.584 
L 414.72 307.584 
" style="fill: none; stroke: #000000; stroke-width: 0.8; stroke-linejoin: miter; stroke-linecap: square"/>
   </g>
   <g id="patch_6">
    <path d="M 57.6 41.472 
L 414.72 41.472 
" style="fill: none; stroke: #000000; stroke-width: 0.8; stroke-linejoin: miter; stroke-linecap: square"/>
   </g>
   <g id="legend_1">
    <g id="patch_7">
     <path d="M 293.212188 108.1845 
L 407.72 108.1845 
Q 409.72 108.1845 409.72 106.1845 
L 409.72 48.472 
Q 409.72 46.472 407.72 46.472 
L 293.212188 46.472 
Q 291.212188 46.472 291.212188 48.472 
L 291.212188 106.1845 
Q 291.212188 108.1845 293.212188 108.1845 
z
" style="fill: #ffffff; opacity: 0.8; stroke: #cccccc; stroke-linejoin: miter"/>
    </g>
    <g id="line2d_17">
     <path d="M 295.212188 54.570438 
L 305.212188 54.570438 
L 315.212188 54.570438 
" style="fill: none; stroke: #1f77b4; stroke-width: 1.5; stroke-linecap: square"/>
    </g>
    <g id="text_15">
     <!-- potential energy -->
     <g transform="translate(323.212188 58.070438)scale(0.1 -0.1)">
      <defs>
       <path id="DejaVuSans-70" d="M 1159 525 
L 1159 -1331 
L 581 -1331 
L 581 3500 
L 1159 3500 
L 1159 2969 
Q 1341 3281 1617 3432 
Q 1894 3584 2278 3584 
Q 2916 3584 3314 3078 
Q 3713 2572 3713 1747 
Q 3713 922 3314 415 
Q 2916 -91 2278 -91 
Q 1894 -91 1617 61 
Q 1341 213 1159 525 
z
M 3116 1747 
Q 3116 2381 2855 2742 
Q 2594 3103 2138 3103 
Q 1681 3103 1420 2742 
Q 1159 2381 1159 1747 
Q 1159 1113 1420 752 
Q 1681 391 2138 391 
Q 2594 391 2855 752 
Q 3116 1113 3116 1747 
z
" transform="scale(0.015625)"/>
       <path id="DejaVuSans-6f" d="M 1959 3097 
Q 1497 3097 1228 2736 
Q 959 2375 959 1747 
Q 959 1119 1226 758 
Q 1494 397 1959 397 
Q 2419 397 2687 759 
Q 2956 1122 2956 1747 
Q 2956 2369 2687 2733 
Q 2419 3097 1959 3097 
z
M 1959 3584 
Q 2709 3584 3137 3096 
Q 3566 2609 3566 1747 
Q 3566 888 3137 398 
Q 2709 -91 1959 -91 
Q 1206 -91 779 398 
Q 353 888 353 1747 
Q 353 2609 779 3096 
Q 1206 3584 1959 3584 
z
" transform="scale(0.015625)"/>
       <path id="DejaVuSans-74" d="M 1172 4494 
L 1172 3500 
L 2356 3500 
L 2356 3053 
L 1172 3053 
L 1172 1153 
Q 1172 725 1289 603 
Q 1406 481 1766 481 
L 2356 481 
L 2356 0 
L 1766 0 
Q 1100 0 847 248 
Q 594 497 594 1153 
L 594 3053 
L 172 3053 
L 172 3500 
L 594 3500 
L 594 4494 
L 1172 4494 
z
" transform="scale(0.015625)"/>
       <path id="DejaVuSans-69" d="M 603 3500 
L 1178 3500 
L 1178 0 
L 603 0 
L 603 3500 
z
M 603 4863 
L 1178 4863 
L 1178 4134 
L 603 4134 
L 603 4863 
z
" transform="scale(0.015625)"/>
       <path id="DejaVuSans-61" d="M 2194 1759 
Q 1497 1759 1228 1600 
Q 959 1441 959 1056 
Q 959 750 1161 570 
Q 1363 391 1709 391 
Q 2188 391 2477 730 
Q 2766 1069 2766 1631 
L 2766 1759 
L 2194 1759 
z
M 3341 1997 
L 3341 0 
L 2766 0 
L 2766 531 
Q 2569 213 2275 61 
Q 1981 -91 1556 -91 
Q 1019 -91 701 211 
Q 384 513 384 1019 
Q 384 1609 779 1909 
Q 1175 2209 1959 2209 
L 2766 2209 
L 2766 2266 
Q 2766 2663 2505 2880 
Q 2244 3097 1772 3097 
Q 1472 3097 1187 3025 
Q 903 2953 641 2809 
L 641 3341 
Q 956 3463 1253 3523 
Q 1550 3584 1831 3584 
Q 2591 3584 2966 3190 
Q 3341 2797 3341 1997 
z
" transform="scale(0.015625)"/>
       <path id="DejaVuSans-6c" d="M 603 4863 
L 1178 4863 
L 1178 0 
L 603 0 
L 603 4863 
z
" transform="scale(0.015625)"/>
       <path id="DejaVuSans-20" transform="scale(0.015625)"/>
      </defs>
      <use xlink:href="#DejaVuSans-70"/>
      <use xlink:href="#DejaVuSans-6f" x="63.476562"/>
      <use xlink:href="#DejaVuSans-74" x="124.658203"/>
      <use xlink:href="#DejaVuSans-65" x="163.867188"/>
      <use xlink:href="#DejaVuSans-6e" x="225.390625"/>
      <use xlink:href="#DejaVuSans-74" x="288.769531"/>
      <use xlink:href="#DejaVuSans-69" x="327.978516"/>
      <use xlink:href="#DejaVuSans-61" x="355.761719"/>
      <use xlink:href="#DejaVuSans-6c" x="417.041016"/>
      <use xlink:href="#DejaVuSans-20" x="444.824219"/>
      <use xlink:href="#DejaVuSans-65" x="476.611328"/>
      <use xlink:href="#DejaVuSans-6e" x="538.134766"/>
      <use xlink:href="#DejaVuSans-65" x="601.513672"/>
      <use xlink:href="#DejaVuSans-72" x="663.037109"/>
      <use xlink:href="#DejaVuSans-67" x="702.400391"/>
      <use xlink:href="#DejaVuSans-79" x="765.876953"/>
     </g>
    </g>
    <g id="line2d_18">
     <path d="M 295.212188 69.248563 
L 305.212188 69.248563 
L 315.212188 69.248563 
" style="fill: none; stroke: #ff7f0e; stroke-width: 1.5; stroke-linecap: square"/>
    </g>
    <g id="text_16">
     <!-- kinetic energy -->
     <g transform="translate(323.212188 72.748563)scale(0.1 -0.1)">
      <defs>
       <path id="DejaVuSans-6b" d="M 581 4863 
L 1159 4863 
L 1159 1991 
L 2875 3500 
L 3609 3500 
L 1753 1863 
L 3688 0 
L 2938 0 
L 1159 1709 
L 1159 0 
L 581 0 
L 581 4863 
z
" transform="scale(0.015625)"/>
       <path id="DejaVuSans-63" d="M 3122 3366 
L 3122 2828 
Q 2878 2963 2633 3030 
Q 2388 3097 2138 3097 
Q 1578 3097 1268 2742 
Q 959 2388 959 1747 
Q 959 1106 1268 751 
Q 1578 397 2138 397 
Q 2388 397 2633 464 
Q 2878 531 3122 666 
L 3122 134 
Q 2881 22 2623 -34 
Q 2366 -91 2075 -91 
Q 1284 -91 818 406 
Q 353 903 353 1747 
Q 353 2603 823 3093 
Q 1294 3584 2113 3584 
Q 2378 3584 2631 3529 
Q 2884 3475 3122 3366 
z
" transform="scale(0.015625)"/>
      </defs>
      <use xlink:href="#DejaVuSans-6b"/>
      <use xlink:href="#DejaVuSans-69" x="57.910156"/>
      <use xlink:href="#DejaVuSans-6e" x="85.693359"/>
      <use xlink:href="#DejaVuSans-65" x="149.072266"/>
      <use xlink:href="#DejaVuSans-74" x="210.595703"/>
      <use xlink:href="#DejaVuSans-69" x="249.804688"/>
      <use xlink:href="#DejaVuSans-63" x="277.587891"/>
      <use xlink:href="#DejaVuSans-20" x="332.568359"/>
      <use xlink:href="#DejaVuSans-65" x="364.355469"/>
      <use xlink:href="#DejaVuSans-6e" x="425.878906"/>
      <use xlink:href="#DejaVuSans-65" x="489.257812"/>
      <use xlink:href="#DejaVuSans-72" x="550.78125"/>
      <use xlink:href="#DejaVuSans-67" x="590.144531"/>
      <use xlink:href="#DejaVuSans-79" x="653.621094"/>
     </g>
    </g>
    <g id="line2d_19">
     <path d="M 295.212188 83.926688 
L 305.212188 83.926688 
L 315.212188 83.926688 
" style="fill: none; stroke: #2ca02c; stroke-width: 1.5; stroke-linecap: square"/>
    </g>
    <g id="text_17">
     <!-- elastic energy -->
     <g transform="translate(323.212188 87.426688)scale(0.1 -0.1)">
      <defs>
       <path id="DejaVuSans-73" d="M 2834 3397 
L 2834 2853 
Q 2591 2978 2328 3040 
Q 2066 3103 1784 3103 
Q 1356 3103 1142 2972 
Q 928 2841 928 2578 
Q 928 2378 1081 2264 
Q 1234 2150 1697 2047 
L 1894 2003 
Q 2506 1872 2764 1633 
Q 3022 1394 3022 966 
Q 3022 478 2636 193 
Q 2250 -91 1575 -91 
Q 1294 -91 989 -36 
Q 684 19 347 128 
L 347 722 
Q 666 556 975 473 
Q 1284 391 1588 391 
Q 1994 391 2212 530 
Q 2431 669 2431 922 
Q 2431 1156 2273 1281 
Q 2116 1406 1581 1522 
L 1381 1569 
Q 847 1681 609 1914 
Q 372 2147 372 2553 
Q 372 3047 722 3315 
Q 1072 3584 1716 3584 
Q 2034 3584 2315 3537 
Q 2597 3491 2834 3397 
z
" transform="scale(0.015625)"/>
      </defs>
      <use xlink:href="#DejaVuSans-65"/>
      <use xlink:href="#DejaVuSans-6c" x="61.523438"/>
      <use xlink:href="#DejaVuSans-61" x="89.306641"/>
      <use xlink:href="#DejaVuSans-73" x="150.585938"/>
      <use xlink:href="#DejaVuSans-74" x="202.685547"/>
      <use xlink:href="#DejaVuSans-69" x="241.894531"/>
      <use xlink:href="#DejaVuSans-63" x="269.677734"/>
      <use xlink:href="#DejaVuSans-20" x="324.658203"/>
      <use xlink:href="#DejaVuSans-65" x="356.445312"/>
      <use xlink:href="#DejaVuSans-6e" x="417.96875"/>
      <use xlink:href="#DejaVuSans-65" x="481.347656"/>
      <use xlink:href="#DejaVuSans-72" x="542.871094"/>
      <use xlink:href="#DejaVuSans-67" x="582.234375"/>
      <use xlink:href="#DejaVuSans-79" x="645.710938"/>
     </g>
    </g>
    <g id="line2d_20">
     <path d="M 295.212188 98.604813 
L 305.212188 98.604813 
L 315.212188 98.604813 
" style="fill: none; stroke: #d62728; stroke-width: 1.5; stroke-linecap: square"/>
    </g>
    <g id="text_18">
     <!-- total energy -->
     <g transform="translate(323.212188 102.104813)scale(0.1 -0.1)">
      <use xlink:href="#DejaVuSans-74"/>
      <use xlink:href="#DejaVuSans-6f" x="39.208984"/>
      <use xlink:href="#DejaVuSans-74" x="100.390625"/>
      <use xlink:href="#DejaVuSans-61" x="139.599609"/>
      <use xlink:href="#DejaVuSans-6c" x="200.878906"/>
      <use xlink:href="#DejaVuSans-20" x="228.662109"/>
      <use xlink:href="#DejaVuSans-65" x="260.449219"/>
      <use xlink:href="#DejaVuSans-6e" x="321.972656"/>
      <use xlink:href="#DejaVuSans-65" x="385.351562"/>
      <use xlink:href="#DejaVuSans-72" x="446.875"/>
      <use xlink:href="#DejaVuSans-67" x="486.238281"/>
      <use xlink:href="#DejaVuSans-79" x="549.714844"/>
     </g>
    </g>
   </g>
  </g>
 </g>
 <defs>
  <clipPath id="p36e45ae93d">
   <rect x="57.6" y="41.472" width="357.12" height="266.112"/>
  </clipPath>
 </defs>
</svg>
